<?xml version="1.0" standalone="no"?>
<!DOCTYPE svg PUBLIC "-//W3C//DTD SVG 20010904//EN"
 "http://www.w3.org/TR/2001/REC-SVG-20010904/DTD/svg10.dtd">
<svg version="1.0" xmlns="http://www.w3.org/2000/svg"
 width="320.000000pt" height="320.000000pt" viewBox="0 0 320.000000 320.000000"
 preserveAspectRatio="xMidYMid meet">

<g transform="translate(0.000000,320.000000) scale(0.100000,-0.100000)"
fill="#000000" stroke="none">
<path d="M55 3010 c-21 -23 -14 -64 13 -79 9 -5 84 -16 167 -25 84 -9 155 -22
162 -29 6 -6 39 -106 73 -222 34 -115 105 -352 157 -525 111 -367 234 -784
334 -1130 49 -170 77 -250 91 -262 19 -17 71 -18 792 -18 838 0 809 -2 809 55
0 57 27 55 -780 55 -697 0 -743 1 -751 18 -5 9 -19 55 -32 100 -17 63 -20 86
-11 91 6 4 80 13 164 19 83 6 363 30 622 52 259 22 560 47 670 56 110 9 210
20 221 25 16 5 28 26 42 71 11 35 98 299 192 587 111 338 170 531 166 546 -3
13 -13 26 -22 29 -9 3 -113 15 -233 26 -119 11 -331 32 -471 45 -287 28 -510
48 -745 70 -953 87 -1095 101 -1106 112 -4 5 -24 68 -45 142 -21 74 -46 143
-54 152 -12 14 -54 22 -187 38 -212 26 -216 26 -238 1z m770 -470 c111 -8 423
-38 790 -75 83 -8 233 -22 335 -30 102 -8 248 -21 325 -30 213 -23 342 -35
550 -54 164 -14 190 -18 193 -33 2 -10 -49 -176 -112 -370 -64 -194 -137 -418
-162 -498 -26 -80 -52 -150 -58 -156 -6 -6 -103 -18 -216 -28 -113 -9 -281
-24 -375 -31 -93 -8 -253 -21 -355 -29 -102 -9 -299 -25 -438 -38 -220 -19
-254 -20 -266 -8 -8 8 -35 85 -61 170 -250 831 -355 1187 -355 1208 0 14 38
15 205 2z"/>
<path d="M1739 2256 c-119 -33 -226 -126 -282 -243 -78 -164 -33 -384 103
-505 260 -233 674 -85 731 260 34 208 -98 419 -304 484 -68 21 -179 23 -248 4z
m284 -74 c157 -78 248 -250 217 -411 -33 -171 -154 -292 -321 -321 -168 -29
-338 60 -416 217 -25 53 -28 68 -28 163 0 93 3 112 27 162 47 100 137 180 241
214 26 9 74 13 128 11 74 -3 96 -8 152 -35z"/>
<path d="M1684 2045 c-71 -36 -98 -60 -91 -79 7 -18 42 -22 52 -6 4 6 33 24
65 40 48 24 57 33 53 50 -7 26 -19 25 -79 -5z"/>
<path d="M1957 2063 c-18 -17 -4 -41 31 -56 20 -9 54 -26 74 -39 28 -18 40
-20 49 -11 19 19 4 39 -53 71 -61 34 -92 45 -101 35z"/>
<path d="M1730 1885 c-18 -22 -1 -50 31 -50 20 0 24 5 24 30 0 23 -5 31 -21
33 -11 2 -27 -4 -34 -13z"/>
<path d="M1925 1879 c-14 -43 45 -66 61 -24 8 19 -13 45 -37 45 -10 0 -21 -10
-24 -21z"/>
<path d="M1799 1716 c-90 -24 -162 -101 -112 -120 10 -4 27 4 47 22 44 42 68
52 121 52 55 0 110 -24 132 -56 18 -28 23 -29 47 -11 16 12 16 14 -4 40 -50
64 -149 95 -231 73z"/>
<path d="M1276 520 c-34 -11 -82 -54 -102 -92 -22 -43 -18 -115 11 -164 56
-95 199 -112 272 -33 124 135 -5 341 -181 289z"/>
<path d="M2295 519 c-37 -10 -79 -49 -101 -91 -23 -44 -15 -134 15 -176 77
-109 248 -89 303 36 60 135 -71 274 -217 231z"/>
</g>
</svg>
