<?xml version="1.0" standalone="no"?>
<!DOCTYPE svg PUBLIC "-//W3C//DTD SVG 20010904//EN"
 "http://www.w3.org/TR/2001/REC-SVG-20010904/DTD/svg10.dtd">
<svg version="1.0" xmlns="http://www.w3.org/2000/svg"
 width="548.000000pt" height="576.000000pt" viewBox="0 0 548.000000 576.000000"
 preserveAspectRatio="xMidYMid meet">

<g transform="translate(0.000000,576.000000) scale(0.100000,-0.100000)"
fill="#000000" stroke="none">
<path d="M2663 4858 c-14 -18 -56 -128 -51 -133 2 -2 34 -7 71 -11 82 -8 86
-2 55 87 -17 48 -28 65 -44 67 -11 2 -25 -3 -31 -10z"/>
<path d="M2550 4831 c-25 -15 -53 -38 -64 -49 -18 -21 -18 -22 8 -32 15 -5 44
-13 64 -16 l38 -6 13 51 c7 28 17 53 22 57 5 3 9 9 9 15 0 18 -46 8 -90 -20z"/>
<path d="M2746 4838 c4 -13 13 -42 19 -65 6 -23 14 -45 17 -48 8 -9 118 14
118 24 0 16 -61 71 -99 91 -52 26 -64 26 -55 -2z"/>
<path d="M2438 4706 c-9 -18 -19 -54 -23 -80 l-7 -46 86 0 86 0 0 55 c0 30 0
58 1 62 0 5 -104 42 -122 43 -3 0 -13 -15 -21 -34z"/>
<path d="M2897 4724 c-3 -3 -29 -11 -57 -17 -28 -7 -51 -15 -51 -19 1 -5 1
-31 1 -58 l0 -51 83 3 82 3 -2 28 c-2 34 -33 117 -43 117 -4 0 -9 -3 -13 -6z"/>
<path d="M2607 4694 c-4 -4 -7 -31 -7 -61 l0 -53 85 0 86 0 -3 58 -3 57 -75 3
c-42 1 -79 0 -83 -4z"/>
<path d="M835 4646 c-63 -28 -111 -95 -121 -168 -20 -143 113 -262 254 -228
92 22 162 108 162 199 l0 43 63 -5 c34 -3 76 -9 92 -13 26 -6 28 -5 17 8 -15
18 -85 38 -139 39 -34 0 -41 5 -69 47 -40 61 -99 92 -173 92 -31 -1 -69 -7
-86 -14z m153 -165 c36 -52 61 -98 58 -107 -4 -10 -24 -14 -79 -14 -41 0 -95
-3 -120 -6 -37 -5 -48 -3 -53 9 -7 20 104 219 120 214 6 -2 40 -45 74 -96z"/>
<path d="M900 4506 c0 -38 12 -86 21 -86 5 0 9 25 9 55 0 42 -3 55 -15 55 -9
0 -15 -9 -15 -24z"/>
<path d="M907 4404 c-8 -8 1 -24 14 -24 5 0 9 7 9 15 0 15 -12 20 -23 9z"/>
<path d="M2420 4548 c0 -7 11 -37 25 -67 20 -42 29 -52 43 -46 9 4 34 9 55 12
21 3 40 10 43 14 3 5 2 29 -2 54 l-6 45 -79 0 c-57 0 -79 -4 -79 -12z"/>
<path d="M2604 4513 c3 -25 7 -48 9 -49 1 -1 33 -4 72 -5 66 -2 70 -1 76 22 4
13 7 36 8 52 l1 27 -86 0 -87 0 7 -47z"/>
<path d="M2784 4506 l-10 -54 55 -15 c65 -18 74 -14 102 48 33 71 30 75 -59
75 l-79 0 -9 -54z"/>
<path d="M1352 4423 c20 -21 46 -57 58 -81 16 -34 25 -42 38 -36 38 16 150 16
200 0 62 -21 126 -75 148 -126 10 -22 22 -40 27 -40 23 0 104 -47 127 -74 101
-116 72 -242 -72 -306 -72 -32 -163 -39 -573 -46 -422 -8 -449 -5 -533 56 -79
57 -119 156 -94 229 11 32 1 50 -16 28 -19 -23 -23 -91 -8 -140 19 -62 57
-112 114 -148 70 -44 103 -51 282 -58 l165 -6 3 -143 3 -144 -132 -134 c-115
-115 -137 -134 -164 -134 -18 0 -39 -8 -48 -18 -21 -23 -22 -65 -2 -82 13 -11
15 -64 15 -366 l0 -353 -27 -3 c-23 -2 -29 -8 -31 -35 -2 -19 -12 -39 -24 -47
-18 -13 -24 -13 -42 -1 -29 21 -39 19 -70 -11 -32 -33 -33 -51 -4 -81 27 -29
16 -56 -26 -61 -26 -3 -27 -6 -24 -55 l3 -52 37 -3 c51 -4 65 -23 45 -64 -15
-30 -14 -34 1 -51 32 -36 52 -41 77 -17 32 30 71 19 79 -22 4 -18 14 -32 26
-35 16 -4 20 -14 20 -45 0 -53 24 -46 28 8 2 21 10 43 18 47 8 5 14 23 14 43
0 43 22 54 62 31 34 -20 56 -12 82 29 17 25 17 27 -9 54 -22 23 -25 31 -16 48
6 11 25 23 42 27 30 7 31 8 25 48 -9 54 -12 57 -51 57 -28 0 -36 5 -41 24 -3
15 1 34 12 51 l18 28 -34 28 c-42 36 -53 36 -78 2 -19 -26 -21 -26 -44 -11
-14 10 -28 31 -32 49 -3 17 -6 186 -6 375 0 297 2 344 15 344 21 0 47 44 43
73 -2 21 19 48 112 143 63 65 117 117 120 116 3 -1 5 -127 5 -280 0 -393 -10
-381 294 -362 108 6 250 15 315 18 90 5 121 11 124 21 5 15 -39 14 -431 -11
-172 -11 -189 -11 -204 5 -15 15 -17 59 -21 419 -2 222 0 435 5 473 l8 70 230
7 c127 3 252 11 278 17 183 43 269 178 200 316 -20 39 -53 75 -70 75 -7 0 -13
4 -13 10 0 5 -22 21 -50 35 -27 14 -56 37 -64 53 -20 38 -83 96 -131 121 -49
25 -145 36 -201 23 -40 -9 -42 -8 -57 22 -23 50 -67 96 -90 96 -19 0 -17 -4
15 -37z m-440 -2175 c2 -15 17 -31 41 -43 l37 -20 24 30 c24 29 24 30 45 11
19 -18 20 -20 4 -46 -14 -24 -14 -33 -3 -59 8 -20 22 -33 39 -37 47 -10 51
-13 51 -33 0 -14 -9 -23 -26 -27 -17 -4 -31 -19 -41 -42 -14 -33 -13 -36 12
-62 25 -26 25 -27 6 -44 -19 -17 -21 -17 -49 2 -28 21 -29 21 -58 2 -19 -13
-31 -30 -34 -52 -7 -46 -40 -49 -60 -6 -21 45 -76 60 -101 27 -15 -20 -19 -21
-36 -9 -10 8 -20 15 -21 16 -2 2 4 16 13 32 17 28 17 30 -6 61 -19 26 -28 31
-51 26 -27 -6 -28 -5 -28 29 0 28 4 36 18 36 10 0 23 5 30 12 17 17 15 63 -3
78 -19 16 -19 44 1 61 13 10 20 10 45 -5 29 -17 30 -17 65 9 27 21 33 31 28
51 -6 21 -3 24 24 24 24 0 31 -5 34 -22z"/>
<path d="M838 2148 c-38 -22 -68 -69 -68 -107 0 -38 27 -87 60 -111 67 -48
158 -21 195 56 29 62 -4 142 -71 170 -46 19 -73 17 -116 -8z m87 -78 c14 13
28 20 32 16 4 -4 -3 -16 -17 -26 l-25 -19 24 -25 c31 -33 22 -43 -14 -14 l-27
21 -19 -24 c-9 -13 -21 -20 -25 -16 -4 4 0 15 9 25 21 23 22 41 2 48 -8 4 -15
13 -15 22 0 12 6 10 25 -8 l25 -23 25 23z"/>
<path d="M2575 4434 c-5 -1 -27 -5 -48 -9 -33 -5 -37 -8 -26 -21 15 -18 109
-67 116 -61 6 6 -16 85 -25 90 -4 2 -11 3 -17 1z"/>
<path d="M2620 4428 c0 -17 22 -79 35 -98 5 -8 9 -24 10 -34 0 -33 25 -31 25
2 0 16 6 32 14 35 15 6 48 92 38 101 -12 12 -122 6 -122 -6z"/>
<path d="M2764 4413 c-3 -10 -10 -28 -15 -41 -13 -33 -12 -35 21 -29 30 6 100
47 100 58 0 6 -77 29 -95 29 -3 0 -8 -8 -11 -17z"/>
<path d="M4155 4417 c-43 -20 -66 -50 -71 -94 -6 -50 13 -84 59 -107 28 -13
37 -23 32 -35 -20 -50 -35 -133 -35 -187 0 -52 4 -67 25 -92 14 -17 39 -33 55
-37 26 -6 28 -9 23 -43 -2 -20 -6 -43 -9 -49 -4 -16 -62 -16 -123 -2 -55 12
-95 0 -145 -46 -48 -44 -38 -67 11 -25 52 46 78 53 149 40 34 -7 73 -10 87 -8
17 2 35 -6 52 -22 23 -22 35 -25 93 -23 37 1 78 2 92 4 14 1 75 -19 135 -44
125 -53 176 -96 195 -167 7 -25 10 -95 8 -171 -2 -90 0 -129 8 -129 22 0 31
171 14 274 -18 110 -78 168 -227 221 -43 15 -88 36 -100 48 -22 19 -24 19 -42
3 -41 -37 -149 -28 -172 16 -6 12 -8 39 -4 68 5 37 12 50 31 59 40 18 28 31
-24 24 -61 -7 -88 7 -101 52 -18 66 16 235 53 260 17 13 22 13 37 -1 10 -9 48
-24 86 -33 52 -13 69 -22 71 -37 7 -42 45 -124 58 -124 8 0 14 7 14 15 0 24
29 29 50 10 28 -25 25 -39 -12 -71 -27 -22 -37 -41 -54 -113 -12 -47 -20 -89
-17 -93 11 -20 21 -2 37 72 15 64 25 86 53 115 33 34 35 40 30 80 -4 29 -1 56
9 81 13 31 14 45 5 75 -14 46 -72 97 -121 105 -62 10 -70 15 -95 52 -14 20
-40 47 -58 60 -43 28 -121 37 -162 19z"/>
<path d="M850 4207 c0 -21 -9 -30 -47 -47 -51 -22 -126 -88 -117 -102 3 -5 26
10 51 32 25 22 64 45 87 51 23 6 46 13 52 14 15 4 6 51 -12 66 -11 9 -14 7
-14 -14z"/>
<path d="M2667 4223 c-9 -16 -1 -67 11 -71 8 -2 12 9 12 37 0 37 -12 53 -23
34z"/>
<path d="M1362 4158 c-86 -118 -86 -118 -38 -118 31 0 34 -3 40 -37 3 -21 6
-68 6 -105 l0 -68 40 0 40 0 0 105 0 105 35 0 c19 0 35 5 35 11 0 11 -107 159
-115 159 -2 0 -22 -24 -43 -52z"/>
<path d="M1145 4188 c-3 -7 -6 -53 -7 -103 l-3 -90 -33 -5 c-18 -3 -34 -9 -35
-13 -3 -13 96 -156 108 -157 14 0 115 136 115 155 0 10 -10 15 -35 15 l-34 0
-3 103 -3 102 -33 3 c-20 2 -34 -2 -37 -10z"/>
<path d="M2664 4085 c-7 -28 0 -55 16 -55 5 0 10 18 10 40 0 44 -16 54 -26 15z"/>
<path d="M4222 4093 c-19 -35 -24 -83 -12 -98 16 -19 40 -19 40 0 0 8 -5 15
-11 15 -11 0 -9 21 7 78 8 26 -11 30 -24 5z"/>
<path d="M3383 3981 c-22 -21 -43 -51 -45 -67 -3 -16 -9 -37 -13 -46 -5 -13 8
-34 53 -81 64 -66 82 -99 82 -148 0 -20 4 -29 13 -26 17 5 10 85 -10 117 -9
14 -38 47 -64 73 -45 44 -60 67 -42 67 4 0 17 -10 30 -22 37 -34 40 -11 4 26
-38 39 -34 67 5 42 39 -26 50 -18 19 14 -30 32 -16 43 17 13 25 -22 36 -8 13
17 -10 11 -15 23 -11 27 12 13 60 -21 75 -52 8 -17 25 -43 38 -59 21 -25 23
-35 17 -87 -8 -74 6 -115 17 -49 15 88 11 126 -16 151 -39 38 -29 70 17 48 52
-24 62 -54 69 -204 4 -77 4 -143 0 -146 -3 -4 -33 -11 -66 -18 -33 -6 -70 -14
-82 -17 -19 -5 -23 -2 -23 16 0 37 -25 16 -28 -24 -3 -37 -4 -38 -34 -32 -17
3 -62 9 -100 13 l-68 6 2 -274 3 -274 40 -13 c45 -15 194 -45 335 -67 52 -9
107 -18 121 -21 l27 -5 -20 -62 c-11 -37 -18 -77 -15 -99 5 -34 -7 -57 -116
-235 -250 -411 -236 -381 -306 -650 -27 -104 -59 -219 -71 -258 -38 -124 -89
-322 -92 -361 -2 -32 1 -41 20 -49 15 -6 22 -17 20 -30 -2 -16 -14 -21 -57
-27 -103 -15 -175 -71 -169 -132 l3 -31 -165 0 -165 0 -3 27 c-3 25 0 28 27
28 58 0 71 26 71 144 0 125 -8 153 -47 158 -23 2 -29 8 -31 34 -3 28 0 32 29
38 57 11 59 17 59 151 0 134 -3 142 -62 154 -23 5 -32 13 -35 30 -4 28 11 41
49 41 49 0 60 33 56 160 -3 97 -6 114 -22 126 -16 11 -74 14 -298 14 l-278 0
0 61 c0 53 3 64 25 81 14 11 25 30 25 42 0 53 -76 76 -105 32 -17 -26 -12 -50
17 -82 15 -17 18 -33 16 -75 l-3 -54 -277 -5 c-243 -5 -280 -8 -295 -22 -12
-13 -18 -40 -21 -102 -7 -136 10 -186 64 -186 21 0 24 -5 24 -35 0 -32 -3 -35
-28 -35 -47 0 -63 -28 -69 -118 -6 -79 -6 -80 -35 -86 -35 -7 -28 -26 10 -26
21 0 31 -8 42 -33 12 -27 21 -33 53 -35 35 -3 37 -5 37 -38 0 -33 -1 -34 -39
-34 -50 0 -68 -18 -77 -76 -9 -60 1 -191 16 -209 7 -8 35 -15 68 -17 56 -3 57
-3 60 -35 l3 -33 -106 0 c-81 0 -106 -3 -102 -12 6 -19 628 -19 635 -1 3 10
-32 13 -153 13 l-156 0 3 33 3 32 363 3 363 2 -3 -27 c-2 -16 -9 -29 -18 -29
-8 -1 -22 -2 -30 -3 -10 -1 -11 -4 -4 -11 14 -14 803 -9 807 5 1 6 -47 12
-123 15 -69 3 -131 9 -137 13 -19 12 -16 51 5 70 28 25 88 47 150 55 56 7 57
8 60 41 l3 34 52 -7 c29 -3 69 -6 90 -6 l37 0 0 -72 c0 -95 -14 -122 -63 -126
-46 -4 -53 -32 -8 -32 66 0 88 32 98 144 4 56 10 75 22 79 9 2 22 21 30 43 7
21 86 185 175 364 88 179 188 384 221 455 51 112 69 140 126 198 37 37 71 67
78 67 20 0 11 -15 -24 -39 -65 -44 -123 -135 -206 -322 l-37 -86 34 -139 c77
-309 135 -506 156 -531 6 -8 20 -10 34 -7 45 11 26 -23 -30 -54 -69 -39 -116
-96 -116 -139 0 -51 26 -59 113 -33 114 33 187 62 187 72 0 13 -18 9 -148 -32
-56 -18 -109 -29 -118 -26 -39 15 35 108 116 146 38 18 50 29 52 49 3 22 10
28 53 38 28 7 66 14 85 15 34 3 35 1 51 -47 l16 -50 -28 -33 c-38 -43 -63 -92
-52 -103 9 -9 440 4 449 14 10 10 -24 63 -64 99 -52 47 -123 63 -213 49 -34
-6 -65 -8 -68 -6 -6 6 -31 76 -31 88 0 4 6 7 14 7 26 0 27 16 6 122 -35 181
-135 896 -127 904 3 3 42 2 86 -2 l81 -7 4 -31 c3 -17 10 -200 16 -406 6 -206
14 -435 17 -507 l6 -133 45 0 44 0 -6 172 c-4 95 -11 279 -16 408 -5 129 -10
296 -12 370 l-3 135 75 7 c195 20 293 54 261 92 -11 13 -59 27 -143 41 l-38 6
40 51 c82 102 105 192 97 364 -3 62 -1 116 3 120 11 11 50 175 50 209 0 39
-18 29 -25 -12 -13 -74 -36 -159 -53 -193 -23 -45 -90 -80 -152 -80 -59 1
-198 32 -283 64 -89 33 -207 98 -207 113 0 6 16 58 35 114 19 57 35 105 35
107 0 2 21 1 47 -3 59 -9 143 -40 202 -75 38 -22 48 -33 56 -69 12 -46 28 -58
33 -23 4 23 16 29 27 12 4 -6 11 -8 17 -4 5 4 -2 18 -18 35 l-28 29 22 89 c25
99 26 111 12 111 -5 0 -14 -19 -21 -42 -25 -93 -41 -139 -47 -136 -169 89
-322 133 -322 93 0 -8 -3 -15 -6 -15 -14 0 -81 46 -124 84 -42 38 -45 45 -50
101 l-5 60 -74 7 c-41 4 -76 9 -78 11 -2 2 24 33 57 69 55 60 72 88 53 88 -4
0 -42 -37 -85 -82 -83 -89 -98 -92 -98 -20 0 19 -8 40 -20 52 -18 18 -20 34
-20 133 0 87 -5 121 -19 153 -23 50 -64 84 -103 84 -16 0 -46 11 -66 25 -49
33 -63 32 -109 -14z m315 -449 l3 -32 -73 1 c-85 0 -161 13 -138 22 23 10 184
45 195 42 6 -1 11 -16 13 -33z m-68 -57 c118 -9 234 -18 258 -21 l42 -5 0 -85
c0 -95 -11 -106 -43 -41 -10 23 -24 37 -36 37 -31 0 -79 -29 -84 -53 -3 -12
-14 -46 -25 -75 -14 -37 -18 -61 -13 -75 16 -41 80 -86 145 -101 l29 -7 -6
-76 c-3 -41 -7 -77 -10 -79 -8 -9 -592 96 -602 108 -2 2 -5 115 -7 252 l-4
249 70 -6 c39 -4 168 -14 286 -22z m239 -177 c19 -35 77 -81 95 -75 19 6 19
38 0 58 -30 33 -7 33 31 0 20 -17 53 -40 75 -51 22 -11 40 -23 40 -26 0 -14
-43 -144 -48 -148 -11 -6 -132 13 -195 31 -60 17 -117 61 -117 91 0 12 6 10
28 -10 32 -31 79 -51 87 -38 3 5 -11 16 -30 26 -37 17 -65 48 -65 73 0 8 9 3
21 -13 18 -23 67 -56 84 -56 16 0 1 21 -29 39 -31 20 -56 63 -56 97 0 23 17
15 24 -10 6 -25 61 -86 77 -86 17 0 9 17 -26 54 -33 35 -43 64 -28 79 8 9 11
6 32 -35z m135 -264 c38 -6 45 -10 41 -24 -14 -45 237 -160 424 -194 103 -19
157 -15 210 15 18 11 36 17 40 14 8 -8 6 -174 -3 -182 -7 -8 -674 24 -828 39
l-118 12 0 30 c0 17 5 49 12 71 6 22 12 45 12 50 1 6 15 8 31 6 68 -10 90 -7
92 14 1 11 5 50 8 88 7 73 4 71 79 61z m396 -513 c0 -11 -59 -36 -66 -28 -3 3
7 12 23 21 33 18 43 19 43 7z m80 -52 c-34 -29 -128 -79 -149 -79 -26 0 -8 20
27 30 20 6 60 26 87 45 61 43 83 45 35 4z m-787 -246 c-88 -123 -111 -160
-151 -248 -46 -102 -184 -467 -222 -587 -12 -39 -30 -60 -30 -36 0 13 119 349
139 393 6 11 31 74 57 140 25 66 65 152 87 190 49 86 176 259 184 251 3 -3
-26 -49 -64 -103z m-1393 -323 c22 -43 25 -60 10 -60 -12 0 -61 95 -53 104 10
9 22 -3 43 -44z m150 0 c22 -43 25 -60 10 -60 -12 0 -61 95 -53 104 10 9 22
-3 43 -44z m136 -1 c24 -49 26 -68 6 -55 -10 6 -52 86 -52 99 0 22 23 0 46
-44z m1565 -49 c5 0 9 -18 9 -40 0 -22 -4 -40 -10 -40 -5 0 -10 14 -10 30 0
17 -5 38 -11 49 -8 12 -9 31 -3 57 l9 39 3 -47 c2 -27 7 -48 13 -48z m-421 70
c0 -5 -9 -10 -20 -10 -11 0 -20 5 -20 10 0 6 9 10 20 10 11 0 20 -4 20 -10z
m-1810 -30 c0 -19 -7 -20 -94 -20 -90 0 -115 7 -101 30 3 6 48 10 101 10 87 0
94 -1 94 -20z m1790 -30 c0 -5 -13 -10 -30 -10 -16 0 -30 5 -30 10 0 6 14 10
30 10 17 0 30 -4 30 -10z m365 -190 c31 -102 65 -211 76 -243 22 -66 22 -67
10 -67 -5 0 -23 44 -40 98 -80 257 -121 395 -121 405 0 34 24 -28 75 -193z
m-170 69 c-10 -15 -25 -10 -19 6 4 8 10 12 15 9 5 -3 7 -10 4 -15z m-1275 -30
l0 -29 -402 0 c-222 0 -440 -3 -485 -7 l-83 -6 0 36 0 37 478 2 c262 2 480 2
485 0 4 -2 7 -16 7 -33z m-187 -178 c31 -56 32 -61 14 -61 -12 0 -57 79 -57
100 0 23 19 6 43 -39z m137 -1 c22 -43 25 -60 11 -60 -12 0 -61 96 -54 104 10
9 22 -4 43 -44z m-282 -5 c26 -53 26 -55 9 -55 -7 0 -23 20 -35 45 -26 53 -26
55 -9 55 7 0 23 -20 35 -45z m-380 -2 c-3 -15 -17 -18 -101 -21 -92 -3 -97 -2
-97 18 0 19 6 20 101 20 90 0 100 -2 97 -17z m720 -182 l-3 -29 -485 -4 c-461
-3 -485 -2 -488 15 -10 48 -25 47 493 47 l486 0 -3 -29z m1373 -4 c8 -29 -6
-48 -14 -19 -2 9 -8 25 -12 36 -6 14 -4 17 5 14 8 -2 17 -16 21 -31z m-582
-62 c-34 -49 -42 -33 -11 23 19 34 28 42 30 29 2 -10 -7 -33 -19 -52z m641 34
c0 -5 -4 -9 -10 -9 -5 0 -10 7 -10 16 0 8 5 12 10 9 6 -3 10 -10 10 -16z
m-700 -28 c-6 -12 -15 -21 -21 -21 -5 0 -2 15 7 33 10 17 19 27 21 20 2 -7 -1
-21 -7 -32z m-805 -121 c29 -57 29 -60 13 -60 -16 1 -61 87 -53 100 10 16 13
12 40 -40z m-285 0 c21 -42 27 -75 10 -65 -12 7 -50 79 -50 95 0 23 21 8 40
-30z m150 0 c22 -43 25 -60 10 -60 -10 0 -50 71 -50 90 0 23 21 8 40 -30z
m-525 -10 c0 -12 -18 -16 -94 -18 -92 -3 -120 5 -106 27 4 8 40 11 103 9 78
-2 97 -6 97 -18z m-140 -180 c0 -21 -5 -26 -33 -28 -34 -3 -50 14 -38 44 4 10
16 14 38 12 28 -2 33 -7 33 -28z m845 4 c0 -23 -3 -25 -32 -22 -25 2 -34 8
-36 26 -3 19 1 22 32 22 32 0 36 -3 36 -26z"/>
<path d="M3377 3343 c-8 -14 -21 -77 -23 -113 -1 -19 -5 -50 -9 -67 -6 -25 -3
-34 8 -39 24 -9 41 5 26 22 -7 9 -8 24 -3 41 4 16 8 44 9 63 1 19 5 50 10 68
5 21 4 32 -3 32 -6 0 -13 -3 -15 -7z"/>
<path d="M3508 3269 c-51 -19 -45 -69 11 -90 29 -12 87 5 95 28 8 19 -19 63
-38 63 -8 0 -20 2 -28 4 -7 3 -25 0 -40 -5z"/>
<path d="M3983 2833 c3 -16 1 -43 -6 -60 -15 -44 1 -62 38 -45 30 14 34 36 5
27 -23 -7 -24 -5 -9 27 7 16 7 32 0 51 -14 36 -35 36 -28 0z"/>
<path d="M4650 2720 c0 -11 5 -20 10 -20 6 0 10 9 10 20 0 11 -4 20 -10 20 -5
0 -10 -9 -10 -20z"/>
<path d="M2057 4003 c-18 -17 3 -21 146 -27 414 -18 573 -29 584 -38 8 -6 13
-34 13 -69 0 -33 4 -59 10 -59 6 0 10 28 10 65 0 82 -19 105 -84 105 -33 0
-46 5 -51 18 -6 16 -7 16 -20 -1 -12 -16 -27 -17 -246 -7 -129 5 -261 12 -295
15 -33 3 -64 2 -67 -2z"/>
<path d="M1916 3961 c-3 -5 -3 -16 0 -25 4 -9 -4 -25 -20 -39 -30 -28 -32 -37
-11 -37 23 0 55 41 55 71 0 29 -14 46 -24 30z"/>
<path d="M4210 3951 c0 -13 27 -21 45 -15 25 10 17 24 -15 24 -16 0 -30 -4
-30 -9z"/>
<path d="M2437 3896 c-10 -26 4 -47 27 -44 15 2 21 10 21 28 0 29 -38 41 -48
16z"/>
<path d="M2566 3884 c-9 -22 17 -49 39 -40 10 3 15 15 13 28 -4 29 -42 37 -52
12z"/>
<path d="M2690 3881 c-7 -15 -6 -23 6 -35 12 -12 20 -13 35 -6 22 12 25 30 7
48 -18 18 -36 15 -48 -7z"/>
<path d="M2100 3811 c0 -5 28 -12 63 -15 96 -8 591 -25 596 -20 16 16 -44 24
-260 33 -302 13 -399 14 -399 2z"/>
<path d="M2800 3746 l0 -34 -81 -4 c-102 -4 -109 -12 -109 -118 0 -106 7 -114
109 -118 l81 -4 0 -207 c0 -113 3 -216 6 -228 17 -63 24 -2 24 207 l0 230 99
0 c84 0 102 3 125 21 24 19 26 26 26 98 0 113 -3 115 -144 119 l-116 4 0 34
c0 19 -4 34 -10 34 -5 0 -10 -15 -10 -34z m-93 -118 l23 -21 23 21 c13 12 27
19 30 15 4 -3 -3 -17 -15 -30 l-21 -23 23 -25 c13 -14 19 -25 13 -25 -6 0 -16
7 -23 15 -17 20 -30 19 -57 -7 -13 -12 -26 -18 -30 -14 -5 4 5 18 20 32 l28
24 -26 22 c-24 21 -32 38 -18 38 4 0 17 -10 30 -22z m298 -33 l0 -30 -80 0
c-69 0 -80 2 -83 18 -7 36 17 48 92 45 l71 -3 0 -30z"/>
<path d="M2353 3688 c-38 -48 -297 -477 -297 -493 -1 -20 4 -20 314 -17 173 2
323 6 333 9 9 2 17 10 17 18 0 7 -44 77 -97 154 -54 77 -129 186 -167 241 -69
99 -84 112 -103 88z m124 -163 c50 -71 118 -170 152 -220 l62 -90 -188 -8
c-103 -4 -241 -6 -306 -5 l-117 3 81 130 c185 296 212 336 219 328 4 -4 48
-66 97 -138z"/>
<path d="M2355 3468 c9 -115 15 -138 30 -138 12 0 15 20 15 105 l0 105 -26 0
-25 0 6 -72z"/>
<path d="M2371 3301 c-17 -11 -7 -41 13 -41 22 0 30 20 15 36 -9 8 -19 10 -28
5z"/>
<path d="M4043 3674 c-24 -14 -43 -29 -43 -33 0 -19 14 -18 46 4 19 13 48 26
64 30 17 4 30 11 30 16 0 18 -56 8 -97 -17z"/>
<path d="M4910 3653 c0 -3 7 -42 16 -86 13 -61 15 -111 11 -206 -3 -69 -7
-133 -9 -141 -6 -29 16 -25 24 5 16 55 21 229 9 295 -15 91 -30 140 -41 140
-6 0 -10 -3 -10 -7z"/>
<path d="M1867 3624 c-18 -18 16 -24 138 -24 134 0 170 5 159 21 -6 10 -287
13 -297 3z"/>
<path d="M3970 3605 c-7 -9 -10 -18 -7 -22 8 -7 37 15 37 28 0 14 -16 11 -30
-6z"/>
<path d="M1612 3580 c-59 -14 -112 -57 -138 -113 -33 -71 -32 -114 2 -127 14
-6 36 -10 50 -10 22 0 24 4 24 43 0 112 111 168 186 93 27 -27 34 -42 34 -73
0 -43 -18 -76 -39 -71 -15 3 -79 -128 -68 -139 4 -3 39 -2 79 3 66 8 73 11 70
30 -1 12 4 26 12 33 24 20 49 109 43 152 -16 119 -141 207 -255 179z m132 -41
c16 -8 43 -31 60 -52 40 -50 48 -144 17 -194 -23 -36 -33 -40 -50 -19 -9 11
-7 23 9 52 25 48 25 79 1 124 -18 35 -81 80 -113 80 -10 0 -36 -7 -58 -16 -47
-19 -77 -63 -83 -119 -2 -22 -7 -39 -11 -37 -3 1 -13 2 -21 2 -10 0 -15 10
-15 30 0 65 51 135 115 158 38 14 111 10 149 -9z"/>
<path d="M1954 3491 c-15 -15 5 -21 71 -21 41 0 75 4 75 9 0 9 -138 20 -146
12z"/>
<path d="M4750 3400 c-6 -11 -20 -20 -30 -20 -11 0 -20 -7 -20 -15 0 -8 8 -15
18 -15 22 0 62 35 62 55 0 21 -18 18 -30 -5z"/>
<path d="M1957 3404 c-15 -16 -5 -24 29 -24 24 0 34 4 32 13 -5 13 -50 22 -61
11z"/>
<path d="M4376 3369 c-3 -17 -19 -43 -36 -59 -29 -27 -39 -50 -22 -50 25 0 92
96 92 131 0 24 -28 5 -34 -22z"/>
<path d="M4723 3306 c-25 -12 -31 -36 -10 -36 14 0 47 31 47 43 0 9 -10 7 -37
-7z"/>
<path d="M2188 3113 c-130 -3 -138 -5 -138 -23 0 -19 8 -20 193 -20 105 0 256
3 335 7 129 6 142 8 142 25 0 17 -11 18 -197 16 -109 -1 -260 -4 -335 -5z"/>
<path d="M1592 3061 c-156 -5 -195 -9 -203 -21 -11 -17 -2 -190 11 -203 12
-13 583 12 596 26 8 8 10 42 5 107 l-6 95 -105 1 c-58 0 -192 -2 -298 -5z"/>
<path d="M2572 2993 c-7 -3 -19 -18 -27 -34 -22 -41 -76 -41 -115 1 -19 21
-38 30 -59 30 -22 0 -36 -8 -53 -30 -29 -40 -83 -42 -113 -4 -25 32 -81 37
-101 9 -22 -30 -17 -81 8 -99 32 -22 55 -20 84 9 32 32 94 34 131 5 35 -27 69
-25 95 5 28 33 105 36 133 5 23 -25 76 -26 98 -2 49 54 -13 133 -81 105z"/>
<path d="M2815 2985 c-68 -24 -106 -93 -90 -163 l6 -30 -83 -6 c-159 -11 -583
-36 -615 -36 -24 0 -33 -5 -33 -16 0 -14 9 -16 68 -11 37 4 204 14 372 23
l305 17 39 -27 c98 -66 220 -2 220 115 0 101 -94 168 -189 134z m25 -90 c7 -8
18 -15 25 -15 7 0 18 7 25 15 7 8 17 15 23 15 6 0 0 -11 -13 -25 l-23 -25 23
-25 c31 -32 17 -46 -15 -15 l-25 23 -25 -23 c-14 -13 -25 -19 -25 -13 0 6 7
16 15 23 20 17 19 30 -7 57 -17 18 -18 23 -6 23 9 0 21 -7 28 -15z"/>
<path d="M587 2295 c-9 -19 -21 -62 -27 -97 -12 -71 -10 -214 4 -211 5 2 10
47 11 100 2 90 14 144 50 226 14 34 -21 18 -38 -18z"/>
<path d="M480 2241 c-12 -24 -13 -98 -1 -105 5 -3 11 13 14 37 2 23 8 52 12
65 9 28 -10 30 -25 3z"/>
<path d="M925 1628 c-9 -22 -2 -68 10 -71 14 -3 19 63 6 76 -7 7 -12 5 -16 -5z"/>
<path d="M926 1503 c-3 -10 -12 -29 -20 -41 -17 -30 -10 -59 19 -78 30 -19 69
-9 85 21 7 14 24 25 38 27 39 5 40 28 2 28 -21 0 -46 11 -70 30 -44 35 -46 35
-54 13z"/>
<path d="M1113 1448 c2 -7 19 -13 37 -13 18 0 35 6 38 13 2 8 -9 12 -38 12
-29 0 -40 -4 -37 -12z"/>
<path d="M1227 1454 c-14 -14 6 -24 49 -24 32 0 44 4 44 15 0 11 -11 15 -43
15 -24 0 -47 -3 -50 -6z"/>
<path d="M1350 1450 c0 -5 18 -10 40 -10 22 0 40 5 40 10 0 6 -18 10 -40 10
-22 0 -40 -4 -40 -10z"/>
<path d="M3098 1058 c-16 -5 -28 -17 -28 -25 0 -11 5 -13 18 -8 9 4 30 10 45
13 15 2 26 9 24 16 -5 15 -26 17 -59 4z"/>
<path d="M4005 1018 c-28 -15 -28 -15 -20 -27 7 -13 65 13 65 29 0 13 -20 12
-45 -2z"/>
</g>
</svg>
