<?xml version="1.0" standalone="no"?>
<!DOCTYPE svg PUBLIC "-//W3C//DTD SVG 20010904//EN"
 "http://www.w3.org/TR/2001/REC-SVG-20010904/DTD/svg10.dtd">
<svg version="1.0" xmlns="http://www.w3.org/2000/svg"
 width="243.000000pt" height="208.000000pt" viewBox="0 0 243.000000 208.000000"
 preserveAspectRatio="xMidYMid meet">

<g transform="translate(0.000000,208.000000) scale(0.100000,-0.100000)"
fill="#000000" stroke="none">
<path d="M112 2070 c-44 -10 -90 -55 -103 -101 -9 -28 -8 -48 5 -91 17 -58 23
-66 564 -698 l201 -235 1 -427 0 -428 175 0 174 0 -37 54 -37 55 -80 3 -80 3
-5 397 c-5 386 -6 397 -26 420 -138 152 -736 866 -740 884 -15 58 -92 54 1096
54 1031 0 1090 -1 1090 -17 0 -31 -31 -71 -320 -413 l-282 -335 45 -7 c25 -3
54 -9 64 -12 16 -5 70 53 294 319 151 179 282 341 291 359 41 80 28 154 -35
200 -28 21 -33 21 -1125 23 -603 0 -1112 -2 -1130 -7z"/>
<path d="M425 1816 l-40 -34 21 -24 c11 -12 85 -98 163 -191 l143 -167 44 36
44 36 -23 27 c-159 189 -300 351 -305 351 -4 0 -25 -16 -47 -34z"/>
<path d="M826 1345 l-39 -34 54 -65 c30 -36 57 -65 61 -65 5 -1 26 15 48 35
l40 36 -56 64 c-31 35 -59 64 -63 64 -3 -1 -23 -16 -45 -35z"/>
<path d="M1505 1031 c-89 -25 -163 -69 -231 -136 -204 -201 -206 -530 -4 -736
252 -256 682 -187 840 135 76 154 76 315 -1 472 -106 214 -373 332 -604 265z
m161 -236 c9 -48 51 -57 88 -20 l27 27 32 -21 c47 -30 55 -46 36 -80 -14 -24
-15 -31 -2 -55 12 -22 20 -27 38 -22 38 10 54 -3 61 -50 7 -51 -6 -74 -41 -74
-18 0 -25 -7 -30 -32 -6 -26 -4 -35 14 -46 27 -18 27 -45 -1 -82 -24 -33 -52
-38 -79 -14 -16 14 -20 14 -43 -1 -20 -13 -26 -26 -26 -51 0 -28 -5 -36 -27
-45 -15 -5 -41 -9 -57 -7 -27 3 -31 7 -34 35 -3 26 -8 33 -35 39 -25 5 -34 2
-48 -15 -23 -28 -48 -26 -89 7 l-33 28 18 32 c17 27 17 34 5 57 -11 20 -20 25
-46 23 -41 -3 -45 1 -54 54 -9 49 -1 65 37 70 19 2 29 11 36 32 9 26 7 32 -17
48 -34 25 -33 37 7 83 l34 39 28 -21 c27 -19 30 -19 56 -4 23 13 28 22 26 51
-2 34 0 35 43 46 57 14 68 10 76 -31z"/>
<path d="M1612 649 c-105 -22 -132 -166 -43 -226 87 -59 201 -1 201 102 0 86
-72 143 -158 124z"/>
</g>
</svg>
