<svg xmlns="http://www.w3.org/2000/svg"
 width="225" height="225" viewBox="0 0 225 225">

<g transform="translate(0.000000,225.000000) scale(0.100000,-0.100000)"
fill="#9eff00" stroke="none">
<path d="M593 2140 c-18 -10 -40 -31 -50 -47 -17 -26 -18 -78 -18 -969 0 -938
0 -943 21 -971 47 -64 39 -63 579 -63 540 0 532 -1 579 63 21 28 21 33 21 971
0 891 -1 943 -18 969 -10 16 -32 37 -50 47 -31 19 -54 20 -532 20 -478 0 -501
-1 -532 -20z m697 -95 c0 -13 -25 -15 -165 -15 -140 0 -165 2 -165 15 0 13 25
15 165 15 140 0 165 -2 165 -15z m340 -900 l0 -795 -505 0 -505 0 0 795 0 795
505 0 505 0 0 -795z m-462 -862 c52 -44 24 -123 -43 -123 -43 0 -79 41 -70 80
7 32 40 60 70 60 13 0 32 -8 43 -17z"/>
<path d="M1043 1429 c-81 -14 -157 -47 -224 -95 l-61 -45 23 -25 c12 -13 25
-24 29 -24 3 0 29 18 59 40 128 96 335 107 477 24 23 -13 49 -33 59 -44 23
-25 37 -25 60 0 24 27 16 41 -55 89 -103 68 -251 101 -367 80z"/>
<path d="M1035 1296 c-53 -13 -114 -43 -155 -75 -20 -16 -23 -24 -14 -37 21
-35 41 -40 66 -17 70 66 216 86 315 43 29 -12 59 -30 69 -41 22 -25 36 -24 63
5 l22 23 -33 25 c-50 38 -107 64 -166 77 -65 14 -102 13 -167 -3z"/>
<path d="M1085 1170 c-45 -7 -108 -35 -126 -56 -10 -12 -7 -19 10 -38 l23 -24
41 24 c57 32 126 32 182 -1 l42 -24 23 24 c27 28 22 39 -33 67 -50 26 -108 36
-162 28z"/>
</g>
</svg>
